<mxfile host="app.diagrams.net" modified="2021-10-05T18:57:22.979Z" agent="5.0 (Macintosh; Intel Mac OS X 10_15_7) AppleWebKit/537.36 (KHTML, like Gecko) Chrome/94.0.4606.61 Safari/537.36" etag="NGs_R6Ve3cQdnYS0u1-A" version="15.4.3" type="github">
  <diagram id="C5RBs43oDa-KdzZeNtuy" name="Page-1">
    <mxGraphModel dx="1240" dy="740" grid="1" gridSize="10" guides="1" tooltips="1" connect="1" arrows="1" fold="1" page="1" pageScale="1" pageWidth="827" pageHeight="1169" math="0" shadow="0">
      <root>
        <mxCell id="WIyWlLk6GJQsqaUBKTNV-0" />
        <mxCell id="WIyWlLk6GJQsqaUBKTNV-1" parent="WIyWlLk6GJQsqaUBKTNV-0" />
        <mxCell id="8dGjqFIL3v3IQO_hPZwD-11" style="edgeStyle=orthogonalEdgeStyle;rounded=0;orthogonalLoop=1;jettySize=auto;html=1;exitX=0.5;exitY=1;exitDx=0;exitDy=0;entryX=0.5;entryY=0;entryDx=0;entryDy=0;" edge="1" parent="WIyWlLk6GJQsqaUBKTNV-1" source="WIyWlLk6GJQsqaUBKTNV-3" target="8dGjqFIL3v3IQO_hPZwD-0">
          <mxGeometry relative="1" as="geometry" />
        </mxCell>
        <mxCell id="WIyWlLk6GJQsqaUBKTNV-3" value="PCR Product&lt;br&gt;&amp;nbsp;(1st &amp;amp; 2nd step, cleaned)" style="rounded=1;whiteSpace=wrap;html=1;fontSize=12;glass=0;strokeWidth=1;shadow=0;fillColor=#dae8fc;strokeColor=#6c8ebf;" parent="WIyWlLk6GJQsqaUBKTNV-1" vertex="1">
          <mxGeometry x="150" y="70" width="140" height="40" as="geometry" />
        </mxCell>
        <mxCell id="8dGjqFIL3v3IQO_hPZwD-6" value="" style="edgeStyle=orthogonalEdgeStyle;rounded=0;orthogonalLoop=1;jettySize=auto;html=1;" edge="1" parent="WIyWlLk6GJQsqaUBKTNV-1" source="8dGjqFIL3v3IQO_hPZwD-0" target="8dGjqFIL3v3IQO_hPZwD-5">
          <mxGeometry relative="1" as="geometry" />
        </mxCell>
        <mxCell id="8dGjqFIL3v3IQO_hPZwD-12" style="edgeStyle=orthogonalEdgeStyle;rounded=0;orthogonalLoop=1;jettySize=auto;html=1;exitX=1;exitY=0.5;exitDx=0;exitDy=0;entryX=0.5;entryY=0;entryDx=0;entryDy=0;" edge="1" parent="WIyWlLk6GJQsqaUBKTNV-1" source="8dGjqFIL3v3IQO_hPZwD-0" target="8dGjqFIL3v3IQO_hPZwD-3">
          <mxGeometry relative="1" as="geometry" />
        </mxCell>
        <mxCell id="8dGjqFIL3v3IQO_hPZwD-0" value="Prepare samples for sequencing at CQLS" style="rounded=1;whiteSpace=wrap;html=1;fillColor=#dae8fc;strokeColor=#6c8ebf;" vertex="1" parent="WIyWlLk6GJQsqaUBKTNV-1">
          <mxGeometry x="150" y="220" width="140" height="60" as="geometry" />
        </mxCell>
        <mxCell id="8dGjqFIL3v3IQO_hPZwD-13" style="edgeStyle=orthogonalEdgeStyle;rounded=0;orthogonalLoop=1;jettySize=auto;html=1;exitX=0.5;exitY=1;exitDx=0;exitDy=0;entryX=0.5;entryY=0;entryDx=0;entryDy=0;" edge="1" parent="WIyWlLk6GJQsqaUBKTNV-1" source="8dGjqFIL3v3IQO_hPZwD-3" target="8dGjqFIL3v3IQO_hPZwD-8">
          <mxGeometry relative="1" as="geometry" />
        </mxCell>
        <mxCell id="8dGjqFIL3v3IQO_hPZwD-3" value="Sample quantification" style="whiteSpace=wrap;html=1;rounded=1;fillColor=#dae8fc;strokeColor=#6c8ebf;" vertex="1" parent="WIyWlLk6GJQsqaUBKTNV-1">
          <mxGeometry x="330" y="200" width="100" height="40" as="geometry" />
        </mxCell>
        <mxCell id="8dGjqFIL3v3IQO_hPZwD-26" style="edgeStyle=orthogonalEdgeStyle;rounded=0;orthogonalLoop=1;jettySize=auto;html=1;exitX=1;exitY=0.5;exitDx=0;exitDy=0;entryX=0;entryY=0.5;entryDx=0;entryDy=0;" edge="1" parent="WIyWlLk6GJQsqaUBKTNV-1" source="8dGjqFIL3v3IQO_hPZwD-5" target="8dGjqFIL3v3IQO_hPZwD-25">
          <mxGeometry relative="1" as="geometry" />
        </mxCell>
        <mxCell id="8dGjqFIL3v3IQO_hPZwD-5" value="Illumina MiSeq multiplexed sequencing" style="whiteSpace=wrap;html=1;rounded=1;fillColor=#dae8fc;strokeColor=#6c8ebf;" vertex="1" parent="WIyWlLk6GJQsqaUBKTNV-1">
          <mxGeometry x="160" y="330" width="120" height="60" as="geometry" />
        </mxCell>
        <mxCell id="8dGjqFIL3v3IQO_hPZwD-14" style="edgeStyle=orthogonalEdgeStyle;rounded=0;orthogonalLoop=1;jettySize=auto;html=1;exitX=0.5;exitY=1;exitDx=0;exitDy=0;entryX=1;entryY=0.75;entryDx=0;entryDy=0;" edge="1" parent="WIyWlLk6GJQsqaUBKTNV-1" source="8dGjqFIL3v3IQO_hPZwD-8" target="8dGjqFIL3v3IQO_hPZwD-0">
          <mxGeometry relative="1" as="geometry" />
        </mxCell>
        <mxCell id="8dGjqFIL3v3IQO_hPZwD-8" value="Combine samples for multiplexing" style="rounded=1;whiteSpace=wrap;html=1;fillColor=#dae8fc;strokeColor=#6c8ebf;" vertex="1" parent="WIyWlLk6GJQsqaUBKTNV-1">
          <mxGeometry x="330" y="250" width="100" height="40" as="geometry" />
        </mxCell>
        <mxCell id="8dGjqFIL3v3IQO_hPZwD-18" value="" style="edgeStyle=orthogonalEdgeStyle;rounded=0;orthogonalLoop=1;jettySize=auto;html=1;" edge="1" parent="WIyWlLk6GJQsqaUBKTNV-1" source="8dGjqFIL3v3IQO_hPZwD-15" target="8dGjqFIL3v3IQO_hPZwD-17">
          <mxGeometry relative="1" as="geometry" />
        </mxCell>
        <mxCell id="8dGjqFIL3v3IQO_hPZwD-15" value="Demultiplex samples" style="whiteSpace=wrap;html=1;rounded=1;fillColor=#e1d5e7;strokeColor=#9673a6;" vertex="1" parent="WIyWlLk6GJQsqaUBKTNV-1">
          <mxGeometry x="310" y="430" width="120" height="60" as="geometry" />
        </mxCell>
        <mxCell id="8dGjqFIL3v3IQO_hPZwD-20" value="" style="edgeStyle=orthogonalEdgeStyle;rounded=0;orthogonalLoop=1;jettySize=auto;html=1;" edge="1" parent="WIyWlLk6GJQsqaUBKTNV-1" source="8dGjqFIL3v3IQO_hPZwD-17" target="8dGjqFIL3v3IQO_hPZwD-19">
          <mxGeometry relative="1" as="geometry" />
        </mxCell>
        <mxCell id="8dGjqFIL3v3IQO_hPZwD-17" value="Merge paired end reads" style="whiteSpace=wrap;html=1;rounded=1;fillColor=#e1d5e7;strokeColor=#9673a6;" vertex="1" parent="WIyWlLk6GJQsqaUBKTNV-1">
          <mxGeometry x="310" y="510" width="120" height="60" as="geometry" />
        </mxCell>
        <mxCell id="8dGjqFIL3v3IQO_hPZwD-31" value="" style="edgeStyle=orthogonalEdgeStyle;rounded=0;orthogonalLoop=1;jettySize=auto;html=1;" edge="1" parent="WIyWlLk6GJQsqaUBKTNV-1" source="8dGjqFIL3v3IQO_hPZwD-19" target="8dGjqFIL3v3IQO_hPZwD-30">
          <mxGeometry relative="1" as="geometry" />
        </mxCell>
        <mxCell id="8dGjqFIL3v3IQO_hPZwD-19" value="Trim primers from sequences" style="whiteSpace=wrap;html=1;rounded=1;fillColor=#e1d5e7;strokeColor=#9673a6;" vertex="1" parent="WIyWlLk6GJQsqaUBKTNV-1">
          <mxGeometry x="310" y="594.5" width="120" height="60" as="geometry" />
        </mxCell>
        <mxCell id="8dGjqFIL3v3IQO_hPZwD-27" style="edgeStyle=orthogonalEdgeStyle;rounded=0;orthogonalLoop=1;jettySize=auto;html=1;exitX=0.5;exitY=1;exitDx=0;exitDy=0;" edge="1" parent="WIyWlLk6GJQsqaUBKTNV-1" source="8dGjqFIL3v3IQO_hPZwD-25" target="8dGjqFIL3v3IQO_hPZwD-15">
          <mxGeometry relative="1" as="geometry" />
        </mxCell>
        <mxCell id="8dGjqFIL3v3IQO_hPZwD-25" value="Raw Illumina Reads" style="rhombus;whiteSpace=wrap;html=1;fillColor=#fff2cc;strokeColor=#d6b656;" vertex="1" parent="WIyWlLk6GJQsqaUBKTNV-1">
          <mxGeometry x="322" y="317.5" width="96" height="85" as="geometry" />
        </mxCell>
        <mxCell id="8dGjqFIL3v3IQO_hPZwD-34" value="" style="edgeStyle=orthogonalEdgeStyle;rounded=0;orthogonalLoop=1;jettySize=auto;html=1;" edge="1" parent="WIyWlLk6GJQsqaUBKTNV-1" source="8dGjqFIL3v3IQO_hPZwD-28" target="8dGjqFIL3v3IQO_hPZwD-33">
          <mxGeometry relative="1" as="geometry" />
        </mxCell>
        <mxCell id="8dGjqFIL3v3IQO_hPZwD-28" value="Trimmed &quot;raw&quot; sequences" style="rhombus;whiteSpace=wrap;html=1;rounded=1;strokeColor=#d6b656;fillColor=#fff2cc;" vertex="1" parent="WIyWlLk6GJQsqaUBKTNV-1">
          <mxGeometry x="480" y="670" width="100" height="80" as="geometry" />
        </mxCell>
        <mxCell id="8dGjqFIL3v3IQO_hPZwD-32" style="edgeStyle=orthogonalEdgeStyle;rounded=0;orthogonalLoop=1;jettySize=auto;html=1;exitX=1;exitY=0.5;exitDx=0;exitDy=0;entryX=0;entryY=0.5;entryDx=0;entryDy=0;" edge="1" parent="WIyWlLk6GJQsqaUBKTNV-1" source="8dGjqFIL3v3IQO_hPZwD-30" target="8dGjqFIL3v3IQO_hPZwD-28">
          <mxGeometry relative="1" as="geometry">
            <mxPoint x="490" y="710" as="targetPoint" />
          </mxGeometry>
        </mxCell>
        <mxCell id="8dGjqFIL3v3IQO_hPZwD-30" value="Flip reverse complement reads and merge" style="whiteSpace=wrap;html=1;rounded=1;strokeColor=#9673a6;fillColor=#e1d5e7;" vertex="1" parent="WIyWlLk6GJQsqaUBKTNV-1">
          <mxGeometry x="310" y="680" width="120" height="60" as="geometry" />
        </mxCell>
        <mxCell id="8dGjqFIL3v3IQO_hPZwD-36" value="" style="edgeStyle=orthogonalEdgeStyle;rounded=0;orthogonalLoop=1;jettySize=auto;html=1;" edge="1" parent="WIyWlLk6GJQsqaUBKTNV-1" source="8dGjqFIL3v3IQO_hPZwD-33" target="8dGjqFIL3v3IQO_hPZwD-35">
          <mxGeometry relative="1" as="geometry" />
        </mxCell>
        <mxCell id="8dGjqFIL3v3IQO_hPZwD-33" value="Filter sequences by length and expected error" style="whiteSpace=wrap;html=1;rounded=1;strokeColor=#9673a6;fillColor=#e1d5e7;" vertex="1" parent="WIyWlLk6GJQsqaUBKTNV-1">
          <mxGeometry x="470" y="780" width="120" height="60" as="geometry" />
        </mxCell>
        <mxCell id="8dGjqFIL3v3IQO_hPZwD-38" value="" style="edgeStyle=orthogonalEdgeStyle;rounded=0;orthogonalLoop=1;jettySize=auto;html=1;" edge="1" parent="WIyWlLk6GJQsqaUBKTNV-1" source="8dGjqFIL3v3IQO_hPZwD-35" target="8dGjqFIL3v3IQO_hPZwD-37">
          <mxGeometry relative="1" as="geometry" />
        </mxCell>
        <mxCell id="8dGjqFIL3v3IQO_hPZwD-35" value="Trimmed and filtered reads" style="rhombus;whiteSpace=wrap;html=1;rounded=1;strokeColor=#d6b656;fillColor=#fff2cc;" vertex="1" parent="WIyWlLk6GJQsqaUBKTNV-1">
          <mxGeometry x="620" y="770" width="100" height="80" as="geometry" />
        </mxCell>
        <mxCell id="8dGjqFIL3v3IQO_hPZwD-40" value="" style="edgeStyle=orthogonalEdgeStyle;rounded=0;orthogonalLoop=1;jettySize=auto;html=1;" edge="1" parent="WIyWlLk6GJQsqaUBKTNV-1" source="8dGjqFIL3v3IQO_hPZwD-37" target="8dGjqFIL3v3IQO_hPZwD-39">
          <mxGeometry relative="1" as="geometry" />
        </mxCell>
        <mxCell id="8dGjqFIL3v3IQO_hPZwD-37" value="Cluster into OTUs" style="whiteSpace=wrap;html=1;rounded=1;strokeColor=#9673a6;fillColor=#e1d5e7;" vertex="1" parent="WIyWlLk6GJQsqaUBKTNV-1">
          <mxGeometry x="610" y="870" width="120" height="60" as="geometry" />
        </mxCell>
        <mxCell id="8dGjqFIL3v3IQO_hPZwD-39" value="Align OTUs to taxonomic classifications (BOLD or BLAST)" style="whiteSpace=wrap;html=1;rounded=1;strokeColor=#9673a6;fillColor=#e1d5e7;" vertex="1" parent="WIyWlLk6GJQsqaUBKTNV-1">
          <mxGeometry x="610" y="950" width="120" height="60" as="geometry" />
        </mxCell>
      </root>
    </mxGraphModel>
  </diagram>
</mxfile>
